<?xml version="1.0" encoding="utf-8"?>
<!-- Generator: Adobe Illustrator 23.0.0, SVG Export Plug-In . SVG Version: 6.00 Build 0)  -->
<svg version="1.1" id="Warstwa_1" xmlns="http://www.w3.org/2000/svg" xmlns:xlink="http://www.w3.org/1999/xlink" x="0px" y="0px"
	 viewBox="0 0 49 76" style="enable-background:new 0 0 49 76;" xml:space="preserve">
<style type="text/css">
	.st0{fill:#4C4743;}
	.st1{fill:#302D2B;}
	.st2{fill:#B7B1AE;}
	.st3{fill:#E8E1DD;}
</style>
<path class="st0" d="M38.5,51.2c-0.6,1.3-1.4,2.3-2.4,3.2c-0.5-1.6-1.2-3.3-1.6-4.2c-0.7-1.7-3.4,0.5-5-0.8c-1.5-1.2-2.7-1.7-3.6-2
	c-0.7-0.2-1.4-0.2-2-0.1c-0.8,0.3-2.2,0.8-3.8,2c-1.6,1.3-4.3-0.9-5,0.8c-0.3,0.7-1,2.2-1.4,3.6c-0.8-0.8-1.4-1.6-1.9-2.7
	c-2.9-6.4-4.8-0.8-6.5-11.9c-0.2,0-0.4,0-0.5,0.1c-0.4,3.7-1.1,11.1-0.5,13.6c0.4,1.8,2.9,8,6.9,13.5c-0.2-1.9-0.3-3.9-0.3-5
	c0,0,0.2,0.9,0.5,2.2c0.8,3.7,3,7.1,6.3,9.4c0,0,0,0,0.1,0c-0.8-2.2-1.4-3.5-1-4.5c0,0,6.3,5.5,8.5,5.6c0.9,0,6.3-5.3,6.3-5.3
	c0.3,0.4-0.2,5.2-0.2,5.2c3.8-2.1,6.4-5.7,7.3-9.6c0.4-1.7,0.8-3.3,0.8-4.1c0,0,0.2,2.9,0.1,5.7c3.8-5.4,6.2-11.3,6.5-13
	c0.5-2.4-0.1-9.3-0.5-13.1c-0.2,0-0.5,0.1-0.7,0.1C43.2,50.2,41.4,45,38.5,51.2z M25.1,58.6c0,0-4.9-0.3-9-2.8
	c0.7-1.3,1.4-2.9,2.4-3.3c1.5-0.6,5,0.4,6.3-2.5c1.3,2.8,4.8,1.9,6.3,2.5c1,0.4,1.8,2.2,2.5,3.6C29.7,58.3,25.1,58.6,25.1,58.6z"/>
<path class="st1" d="M30.7,51.3c-1.2,0-1.9,0-3-0.5c-1.2-0.6-1.7-1.4-2.8-1.6c-1,0.2-1.6,1-2.8,1.6c-1.1,0.5-1.7,0.5-3,0.5
	c-2.4,0.1-2.4,2.8-5.3,2.7c0.4,1.2,2.4,1.9,2.4,1.9c0.7-1.3,1.4-2.9,2.4-3.3c1.5-0.6,4.9,0.3,6.2-2.4c1.3,2.7,4.7,1.8,6.2,2.4
	c1,0.4,1.9,2.2,2.6,3.6c0,0,1.9-0.7,2.4-1.7C33.3,54.6,33.1,51.4,30.7,51.3z"/>
<path class="st1" d="M45.5,40c-0.7,8.7-3.8,18.5-3.8,18.5c0.1-2-2-3.4-2-3.4c0,2.3-2.1,7.3-2.1,7.3c0-1.3-1.4-3.8-1.4-3.8
	c-0.1,4.2-2.9,8.5-2.9,8.5c0.6-1.7-1-6.1-1-6.1c-1.3,7.2-7.3,12.3-7.3,12.3c2.8-4.5-1.3-9.7-1.3-9.7c-1.4,1.9,0,8.4,0,8.4
	c-4.1-2-6.2-10.5-6.2-10.5c-1,1.5,0,4.6,0,4.6c-2.2-1.9-4.8-8.4-4.8-8.4c-0.5,1.5,0,3.3,0,3.3c-1.5-1.2-3.8-7.5-3.8-7.5
	c-0.4,1.2,0,3.1,0,3.1c-2.3-4-3.4-12.4-3.9-17.1H4.6c-0.4,3.7-1.1,11.1-0.5,13.6c0.4,1.8,2.9,8,6.9,13.5c-0.2-1.9-0.3-3.9-0.3-5
	c0,0,0.2,0.9,0.5,2.2c0.8,3.7,3,7.1,6.3,9.4c0,0,0,0,0.1,0c-0.8-2.2-1.4-3.5-1-4.5c0,0,5.8,8.3,9,7.2c3.4-1.1,5.9-6.5,5.9-6.5
	c1,1.2-0.3,4.7-0.3,4.7c3.8-2.1,6.4-5.7,7.3-9.6c0.4-1.7,0.8-3.3,0.8-4.1c0,0,0.2,2.9,0.1,5.7c3.8-5.4,6.2-11.3,6.5-13
	c0.5-2.4-0.1-9.3-0.5-13.1C45.6,39.9,45.5,40,45.5,40z"/>
<g>
	<path class="st2" d="M44.8,11.4C42,8,35.3,4.8,25.1,4.8c-10.3,0-16.9,3.3-19.7,6.6C3,14.2,2,18.1,1.5,21.7
		c-0.6,5.1,0.1,10.2,1.8,15.1L5.1,42C6,39.2,6.3,31.3,6.3,29.2c0-1.7,2.9-8.1,2.8-11.2c-0.4-10.3,14.1-6.8,16-6.3
		c2-0.5,16.4-4,16,6.3c-0.1,3,2.8,9.5,2.8,11.2c0,2.1,0.3,10,1.2,12.8l1.8-5.2c1.7-4.9,2.4-10,1.8-15.1C48.2,18,47.1,14.2,44.8,11.4
		z"/>
	<path class="st3" d="M41,18c0,0,9.3-9.2-1.7-13.7c0,0-1.4-3.3-8.8-2.8c0,0-4-3.8-12.3,0.8c0,0-8.2-1-10.3,6c0,0-5.8,2.2-5.1,7.3
		c0,0-4.6,2.7-1.7,9.9c0,0,0.2-5.3,6.3-6.8c6.2-1.5,6.6-3.3,17.1-3.2C24.5,15.6,33.1,10.9,41,18z"/>
	<g>
		<g>
			<path class="st2" d="M39.3,4.3c0,0,4.2,5.8-1.8,11.2c0,0,1.6,0.9,2.2,1.4C39.7,16.9,47,8.2,39.3,4.3z"/>
			<path class="st2" d="M30.5,1.5c0,0,7.1,4.8,3,12.8c0,0,1.6,0.2,2.6,0.6C36.1,14.9,40.5,3.8,30.5,1.5z"/>
			<path class="st2" d="M18.2,2.3c0,0,9.1,1.8,9.1,12.2c0,0,1.4-0.5,3.3-0.5C30.7,14.1,28.6,1.2,18.2,2.3z"/>
			<path class="st2" d="M7.9,8.3c0,0,11.2-1.2,13.2,7.4c0,0,1.3,0,3.4,0C24.5,15.6,20.2,3.2,7.9,8.3z"/>
			<path class="st2" d="M2.8,15.6c0,0,7.7-3.2,10.6,1.3c0,0,1.8-0.7,3.4-0.8C16.8,16,10.3,7.9,2.8,15.6z"/>
		</g>
	</g>
</g>
<g>
	<g>
		<g>
			<path class="st2" d="M29.5,4.2c1.2,1.3,2,2.9,2.4,4.6c0.4-1.3,0.1-2.9-0.8-4C30.6,4.4,30,4,29.5,4.2z"/>
		</g>
		<g>
			<path class="st2" d="M38.4,11.6c0.8-0.5,1.2-1.4,1.2-2.3c0-0.9-0.5-1.7-1.3-2.2C38.8,8.5,38.8,10.1,38.4,11.6z"/>
		</g>
		<g>
			<path class="st2" d="M18.3,6.1c2.2,0.6,4.1,2,5.2,3.7c0.2-0.7-0.1-1.4-0.5-2C21.9,6.6,20.1,5.9,18.3,6.1z"/>
		</g>
		<g>
			<path class="st2" d="M13.5,10c0.5,0,1,0,1.5,0.2c1.3,0.5,1.8,1.8,1.8,3.1c-0.9-1.8-3.1-2.9-5.3-2.8c-0.1,0-0.3,0.1-0.2,0.2
				c0-0.2-0.3-0.3-0.4-0.2C11.6,10.1,12.5,10,13.5,10z"/>
		</g>
		<g>
			<path class="st2" d="M9.2,17.3c-1,0-1.9,0-2.9,0.1c0,0.1,0,0.2,0,0.3c0-0.1,0-0.2,0-0.3c-0.2,0.1-0.5,0.1-0.7,0.1
				c-0.1,0.1-0.1,0.2-0.2,0.3c0.1-0.1-0.1-0.1-0.2-0.1c-0.2,0-0.3,0.1-0.5,0.2c-0.3-0.1-0.6,0.2-0.6,0.4c0.1-0.1-0.2-0.2-0.3-0.1
				c-0.2,0.1-0.4,0.2-0.6,0.4c0.5-1,1.4-1.7,2.6-2C7,16.4,8.3,16.7,9.2,17.3z"/>
		</g>
	</g>
</g>
</svg>
