<?xml version="1.0" encoding="utf-8"?>
<!-- Generator: Adobe Illustrator 23.0.0, SVG Export Plug-In . SVG Version: 6.00 Build 0)  -->
<svg version="1.1" id="Warstwa_1" xmlns="http://www.w3.org/2000/svg" xmlns:xlink="http://www.w3.org/1999/xlink" x="0px" y="0px"
	 viewBox="0 0 143 60" style="enable-background:new 0 0 143 60;" xml:space="preserve">
<style type="text/css">
	.st0{fill:#FFFFFF;}
	.st1{fill:#FFBF00;}
</style>
<path class="st0" d="M19.4,50.4H0.2V9.2h18.6c8.4,0,13.4,4.2,13.4,10.7c0,5-3,8.2-7,9.4c4.8,1,7.9,5.2,7.9,9.9
	C33.1,46,28.1,50.4,19.4,50.4z M16.9,17.2h-6.6v8.6h6.6c3.3,0,5.1-1.5,5.1-4.3S20.2,17.2,16.9,17.2z M17.6,33.2h-7.3v9.1h7.4
	c3.3,0,5.3-1.5,5.3-4.5C23,34.9,20.9,33.2,17.6,33.2z"/>
<path class="st0" d="M95.1,9.2v33.5h13.2v7.8H85.1V9.2H95.1z"/>
<path class="st0" d="M110.9,9.2h31.9v8h-10.9v33.2h-10V17.2h-10.9V9.2z"/>
<path class="st0" d="M51.8,39.8c-3.5-1.9-5.5-5.7-5.5-10.7c0-7.3,4.2-12,10.9-12c0,0,0,0,0,0L63.9,9c-2.1-0.6-4.3-1-6.7-1
	c-11.7,0-21.2,8.7-21.2,21.1c0,9.5,5.6,16.8,13.4,19.8L51.8,39.8z"/>
<path class="st0" d="M67.7,10.7l-2.3,9.1c3.2,1.9,5.1,5.6,5.1,10.5c0,7-4,11.6-10.1,11.9l-6.8,8.4c1.9,0.5,4,0.8,6.1,0.8
	c11.7,0,21.1-8.7,21.1-21.1C80.7,20.9,75.4,13.7,67.7,10.7z"/>
<polygon class="st1" points="67.3,6.8 48.1,30.3 55.6,30.3 49.7,53.2 68.6,30 61.5,30 "/>
</svg>
