<svg id="Warstwa_1" data-name="Warstwa 1" xmlns="http://www.w3.org/2000/svg" viewBox="0 0 124 80"><defs><style>.cls-1{fill:#fff;}</style></defs><title>logo</title><path class="cls-1" d="M618.32,243.86a2.25,2.25,0,0,0-.57.53,1.75,1.75,0,0,0-.25.64,1.24,1.24,0,0,0,.16.83Z" transform="translate(-553.72 -234.04)"/><path class="cls-1" d="M615.46,251.84a1.82,1.82,0,0,0,1.29-.63,2,2,0,0,0,.42-1.45,3,3,0,0,0-.86-1.8,12.41,12.41,0,0,1-1,1.52,9.25,9.25,0,0,1-1.7,1.65.41.41,0,0,1,.18.1A2.3,2.3,0,0,0,615.46,251.84Z" transform="translate(-553.72 -234.04)"/><path class="cls-1" d="M591.93,294.17a2.36,2.36,0,0,0-1.36-.3h-.42l-.41,0a21.7,21.7,0,0,0-.37,2.24c-.1.89-.2,1.82-.29,2.8a5.26,5.26,0,0,0,1.18-.73,7.55,7.55,0,0,0,1.07-1,5.64,5.64,0,0,0,.77-1.15,2.19,2.19,0,0,0,.27-1.06A1,1,0,0,0,591.93,294.17Z" transform="translate(-553.72 -234.04)"/><path class="cls-1" d="M625.91,251.11a2.36,2.36,0,0,0,.79.61,2.45,2.45,0,0,0,2,.08,2.88,2.88,0,0,0,.85-.57,2.7,2.7,0,0,0,.6-.87,3,3,0,0,0,.26-1.08V249a9.87,9.87,0,0,1-1.16-.38,4.78,4.78,0,0,1-.88-.46,6.55,6.55,0,0,1-.75-.66,3.47,3.47,0,0,1-.66-.9,2.45,2.45,0,0,0-1.2.95,3,3,0,0,0-.54,1.55,2.88,2.88,0,0,0,.15,1.1A2.84,2.84,0,0,0,625.91,251.11Z" transform="translate(-553.72 -234.04)"/><path class="cls-1" d="M676.38,246.35H663.79a1.34,1.34,0,0,1-1.2-1.92l4.08-8.47a1.34,1.34,0,0,0-1.21-1.92H566a1.34,1.34,0,0,0-1.2,1.92l4.08,8.47a1.34,1.34,0,0,1-1.2,1.92H555.06a1.34,1.34,0,0,0-1.34,1.34V300.4a1.33,1.33,0,0,0,1.34,1.33h12.59a1.34,1.34,0,0,1,1.2,1.92l-4.08,8.48A1.33,1.33,0,0,0,566,314h99.49a1.33,1.33,0,0,0,1.21-1.91l-4.08-8.48a1.34,1.34,0,0,1,1.2-1.92h12.59a1.33,1.33,0,0,0,1.34-1.33V247.69A1.34,1.34,0,0,0,676.38,246.35Zm-74.29-1.54a4.52,4.52,0,0,1,2.61-.83,4.94,4.94,0,0,1,1.62.24,4.34,4.34,0,0,1,1.16.59,2.74,2.74,0,0,1,.7.76,1.53,1.53,0,0,1,.24.77.42.42,0,0,1-.06.28.17.17,0,0,1-.12.06.21.21,0,0,1-.15-.07,1.28,1.28,0,0,0-.48-.53,2.14,2.14,0,0,0-.79-.29,3.26,3.26,0,0,0-1.31.09,4,4,0,0,0-1.65.93,6.52,6.52,0,0,0-1.36,1.63,3.76,3.76,0,0,0-.57,1.71,1.14,1.14,0,0,0,.76,1.18,1.41,1.41,0,0,0,1.14,0,5.28,5.28,0,0,0,1.2-.62,6.08,6.08,0,0,1,.18-1.23,4.8,4.8,0,0,1,.39-1,2.39,2.39,0,0,1,.56-.73,1.12,1.12,0,0,1,.73-.26,3.34,3.34,0,0,1,.62.06,2,2,0,0,1,.57.2,1.24,1.24,0,0,1,.42.4,1.15,1.15,0,0,1,.16.64,1.55,1.55,0,0,1-.31.9,1.43,1.43,0,0,0-.32.76c0,.71.16,1.13.48,1.28a1.49,1.49,0,0,0,1.2-.11,7.37,7.37,0,0,0,1.55-1c.25-.21.49-.43.71-.65a.26.26,0,0,1,0-.14c.22-.24.47-.51.74-.83s.54-.64.81-1l.81-1,.73-.91a1.68,1.68,0,0,1,.12-1.18A2.59,2.59,0,0,1,616,244a3.89,3.89,0,0,1,1.11-.57,3.55,3.55,0,0,1,1.15-.21c.46,0,.72.19.78.56a2.91,2.91,0,0,1-.09,1.22,9.33,9.33,0,0,1-.69,1.76,7.42,7.42,0,0,0,.63.8l.54.62a2.82,2.82,0,0,0,.48.46,2.42,2.42,0,0,1,.63.83,5.3,5.3,0,0,1,.42,1.22q.68-.41,1.41-.9v0a4.88,4.88,0,0,1,.45-1.94,5.53,5.53,0,0,1,1.1-1.58,5.23,5.23,0,0,1,1.57-1.08,5.14,5.14,0,0,1,1.89-.46,2.21,2.21,0,0,1,1-.32,1.93,1.93,0,0,1,.85.15,1.83,1.83,0,0,1,.63.46c.17.19.32.37.44.53a4.13,4.13,0,0,1,.87.75,8.1,8.1,0,0,0,1.53.36,10.9,10.9,0,0,0,1.48.08l.57,0c0-.36.09-.69.14-1a3.61,3.61,0,0,1,.3-1.07,1,1,0,0,1,.64-.47,3.19,3.19,0,0,1,1-.15,2.27,2.27,0,0,1,.93.21.61.61,0,0,1,.41.55v3.11a11.87,11.87,0,0,1,1-1.61,8.18,8.18,0,0,1,1.26-1.35,5.9,5.9,0,0,1,1.44-.93,3.76,3.76,0,0,1,1.55-.35,4.24,4.24,0,0,1,.61,0,2.09,2.09,0,0,1,.63.17,1.77,1.77,0,0,1,.5.34.79.79,0,0,1,.24.49,10.59,10.59,0,0,1,0,1.24c0,.48-.07,1-.13,1.47s-.11,1-.15,1.51a10.31,10.31,0,0,0,0,1.34,2.68,2.68,0,0,0,.19,1,.58.58,0,0,0,.56.36,1.89,1.89,0,0,0,1-.42q.6-.42,1.2-.93c.46-.4.93-.86,1.41-1.37l.42,1.9a12.08,12.08,0,0,1-1.62,2.22c-.26.27-.54.54-.84.8a6.61,6.61,0,0,1-1,.71,5.52,5.52,0,0,1-1.07.51,3.43,3.43,0,0,1-1.15.19,2.83,2.83,0,0,1-2.13-.72,3.44,3.44,0,0,1-.89-1.83,7.61,7.61,0,0,1,0-2.43,22.28,22.28,0,0,1,.53-2.56,14.51,14.51,0,0,0-1.37,2.14,19,19,0,0,0-.91,2c-.24.62-.44,1.19-.59,1.69s-.28.91-.4,1.2a.3.3,0,0,1,0,.16c0,.26-.19.45-.62.56a4,4,0,0,1-1.45.07,3.8,3.8,0,0,1-1.49-.49,1.24,1.24,0,0,1-.67-1.12c0-.16,0-.48,0-.94s0-1,.06-1.6.07-1.25.12-1.93l-.19,0a9.74,9.74,0,0,1-1.71,0,2.16,2.16,0,0,1,0,.35v.34a5.33,5.33,0,0,1-.51,2,5.48,5.48,0,0,1-1.19,1.62,5.22,5.22,0,0,1-1.69,1.07,4.74,4.74,0,0,1-2,.34,4.55,4.55,0,0,1-2-.47,5,5,0,0,1-1.58-1.18,5.15,5.15,0,0,1-.75-1.09l-.06.07a11.08,11.08,0,0,1-1.63,1.44,5.63,5.63,0,0,1-2.09,1,5.33,5.33,0,0,1-2.28.45,4,4,0,0,1-2.1-.47,3.36,3.36,0,0,1-1.18-1.12,2.94,2.94,0,0,1-.47-1.3,2.5,2.5,0,0,1,0-.79,20.23,20.23,0,0,1-1.74,1.54q-.48.39-1,.75a11.06,11.06,0,0,1-1.09.64,7.31,7.31,0,0,1-1.11.44,3.87,3.87,0,0,1-1.1.17,1.42,1.42,0,0,1-1.21-.64,4.15,4.15,0,0,1-.68-1.55,4.89,4.89,0,0,1-1.69,1.55,5.76,5.76,0,0,1-2.93.64,2.13,2.13,0,0,1-1.87-.83,3.61,3.61,0,0,1-.6-2.07,7.9,7.9,0,0,1,.49-2.7,10.53,10.53,0,0,1,1.41-2.7A9,9,0,0,1,602.09,244.81Zm-19.39-3.08a6.11,6.11,0,0,1,1.2-1.79,5.55,5.55,0,0,1,1.94-1.33,7.41,7.41,0,0,1,2.32-.59,16.8,16.8,0,0,1,2.46,0c.83,0,1.65.11,2.46.2a21.39,21.39,0,0,0,2.36.13,4.13,4.13,0,0,1,1.06-1,3.83,3.83,0,0,1,1.64-.54,2,2,0,0,1,1.48.26,1.64,1.64,0,0,1,.66.94,1.78,1.78,0,0,1-.11,1.13,1.64,1.64,0,0,1-.81.87s0,0-.06,0a1.71,1.71,0,0,1-.51.15,1.9,1.9,0,0,0-.78.72,5,5,0,0,0-.56,1.23,1.31,1.31,0,0,0-.09.46v.16l-.09,0a21.57,21.57,0,0,0-.57,3.23c-.14,1.25-.29,2.54-.44,3.87s-.33,2.65-.52,4a20,20,0,0,1-.86,3.56,8.24,8.24,0,0,1-1.44,2.65,3.36,3.36,0,0,1-2.23,1.22,5.42,5.42,0,0,1-2.28-.19,4.88,4.88,0,0,1-1.85-1.05,4.36,4.36,0,0,1-1.14-1.73,4.44,4.44,0,0,1-.16-2.28c0-.1.07-.12.15-.07l.34.24.54.37a3.11,3.11,0,0,0,.71.34,2.65,2.65,0,0,0,.87.13,2.52,2.52,0,0,0,1-.24,3.76,3.76,0,0,0,1.72-1.54,10.15,10.15,0,0,0,1-2.47,22,22,0,0,0,.63-3c.15-1.08.29-2.14.42-3.2s.29-2.07.48-3a10.56,10.56,0,0,1,.8-2.49.57.57,0,0,1,0-.12.92.92,0,0,0,0-.19l-1.35,0q-.72,0-1.59.12a4.53,4.53,0,0,0-2.22.77,2.47,2.47,0,0,0-.9,1.27,2.19,2.19,0,0,0,0,1.32,1.79,1.79,0,0,0,.65.93,1.39,1.39,0,0,0,.57.24c.26.06.4.15.43.25s-.15.24-.54.4a17.27,17.27,0,0,1-2.32.63,6.42,6.42,0,0,1-2.79-.18,3.32,3.32,0,0,1-1.62-1.1,2.89,2.89,0,0,1-.57-1.69A4.45,4.45,0,0,1,582.7,241.73Zm10.21,58.89a6.05,6.05,0,0,1,2,1.38,5,5,0,0,1,1.2,4.91,4.72,4.72,0,0,1-1,1.85,8.63,8.63,0,0,1-1.85,1.56,11.94,11.94,0,0,1-2.41,1.16,12.92,12.92,0,0,1-2.7.64,11,11,0,0,1-2.69,0,6.57,6.57,0,0,1-2.4-.77,5.34,5.34,0,0,1-1.84-1.64,6,6,0,0,1-1-2.65,1.62,1.62,0,0,1,.23-.95.9.9,0,0,1,.5-.37.68.68,0,0,1,.52.09.51.51,0,0,1,.24.44,1.76,1.76,0,0,0,.73,1.26,4.88,4.88,0,0,0,1.84,1,6.2,6.2,0,0,0,2.42.22,4.64,4.64,0,0,0,2.48-1.07,5.41,5.41,0,0,0,1.73-2.13,3.65,3.65,0,0,0,.28-2,2.52,2.52,0,0,0-.78-1.48,2.1,2.1,0,0,0-1.44-.58c0,.57-.07,1.11-.1,1.63s0,1,0,1.42,0,.79,0,1.09,0,.53,0,.67-.17.33-.52.48A3.24,3.24,0,0,1,587,307a3,3,0,0,1-1.26-.18A1.19,1.19,0,0,1,585,306a2.79,2.79,0,0,1-.07-1.05c0-.49.07-1.06.15-1.72s.17-1.37.3-2.14.27-1.53.41-2.3.29-1.5.45-2.22.32-1.36.48-1.92a6.73,6.73,0,0,0-1.7,1,6.83,6.83,0,0,0-1.18,1.24,5.08,5.08,0,0,0-.69,1.29,3.48,3.48,0,0,0-.22,1.17,2,2,0,0,0,.08.58c0,.17.1.31.14.43a1.07,1.07,0,0,1,.08.32.28.28,0,0,1-.09.24,1.17,1.17,0,0,1-.69.24,4.38,4.38,0,0,1-1.06-.06,5.15,5.15,0,0,1-1.19-.35,5.27,5.27,0,0,1-1.13-.65,3.2,3.2,0,0,1-.83-.93,2.45,2.45,0,0,1-.32-1.25,4,4,0,0,1,.85-2.18,9.32,9.32,0,0,1,2.48-2.32,15.48,15.48,0,0,1,4-1.84,18.35,18.35,0,0,1,5.44-.74,6.85,6.85,0,0,1,3.3.69,4.43,4.43,0,0,1,1.83,1.72,3.83,3.83,0,0,1,.47,2.24,4.68,4.68,0,0,1-.76,2.24,5.4,5.4,0,0,1-1.91,1.71,5.91,5.91,0,0,1-2.93.69A5.55,5.55,0,0,1,592.91,300.62Zm36.69,1.24a6.65,6.65,0,0,1-.74,2.13,5,5,0,0,1-1.41,1.63,3.24,3.24,0,0,1-2,.65,6.28,6.28,0,0,1-2.78-.66c0,.21,0,.39,0,.53v.28c0,.11-.15.19-.44.22a3.88,3.88,0,0,1-1,0,3.54,3.54,0,0,1-1-.24c-.29-.12-.44-.29-.44-.5s0-.39,0-.87,0-1.09-.05-1.8c0-.4,0-.82,0-1.27-.21.18-.43.34-.63.48a5.64,5.64,0,0,1-.79.47,1.6,1.6,0,0,1-.65.18,1.83,1.83,0,0,1-1.13-.33,2.17,2.17,0,0,1-.67-.89,4.52,4.52,0,0,1-.31-1.29,15.14,15.14,0,0,1,0-1.53c-.17.27-.37.59-.58,1s-.42.76-.62,1.17-.4.81-.59,1.21-.34.76-.49,1.07c0,.4,0,.8.07,1.19s.07.81.12,1.22c0,.24-.14.41-.48.52a3.36,3.36,0,0,1-2.3-.15.76.76,0,0,1-.53-.69c0-.13,0-.39,0-.77s0-.68,0-1.1c-.32.3-.64.57-1,.83s-.58.44-.9.65a7.44,7.44,0,0,1-1,.57,6.25,6.25,0,0,1-1,.39,3.25,3.25,0,0,1-1,.15,1.3,1.3,0,0,1-1.08-.56,3.79,3.79,0,0,1-.59-1.37,4.54,4.54,0,0,1-1.5,1.37,5.14,5.14,0,0,1-2.58.56,1.89,1.89,0,0,1-1.66-.73,3.22,3.22,0,0,1-.53-1.83,6.93,6.93,0,0,1,.44-2.38,9.23,9.23,0,0,1,1.25-2.39,7.27,7.27,0,0,1,1.85-1.82,4,4,0,0,1,2.3-.74,4.35,4.35,0,0,1,1.43.21,3.75,3.75,0,0,1,1,.53,2.17,2.17,0,0,1,.63.66,1.4,1.4,0,0,1,.21.69.43.43,0,0,1,0,.24.14.14,0,0,1-.11.05.16.16,0,0,1-.13-.06,1.2,1.2,0,0,0-.43-.47,1.9,1.9,0,0,0-.7-.25,2.81,2.81,0,0,0-1.15.08,3.62,3.62,0,0,0-1.46.82,5.83,5.83,0,0,0-1.2,1.44,3.35,3.35,0,0,0-.51,1.51,1,1,0,0,0,.68,1,1.26,1.26,0,0,0,1,0,5.12,5.12,0,0,0,1.06-.55,5.31,5.31,0,0,1,.15-1.09,4.42,4.42,0,0,1,.35-.91,2,2,0,0,1,.49-.64.94.94,0,0,1,.65-.23,2.53,2.53,0,0,1,.54.05,1.85,1.85,0,0,1,.5.18,1.16,1.16,0,0,1,.38.35,1.08,1.08,0,0,1,.14.56,1.34,1.34,0,0,1-.28.8,1.3,1.3,0,0,0-.28.67c0,.63.15,1,.43,1.13a1.24,1.24,0,0,0,1.06-.1,6.15,6.15,0,0,0,1.36-.89,10.68,10.68,0,0,0,1.23-1.19c0-.41.06-.81.11-1.21q.1-.91.27-1.71a7.22,7.22,0,0,1,.37-1.37c0-.14.2-.23.46-.28a3.07,3.07,0,0,1,.81-.05,3.82,3.82,0,0,1,.75.15c.22.08.33.18.33.29,0,.33,0,.81-.08,1.45a12.09,12.09,0,0,1,1.25-1.4A4.11,4.11,0,0,1,616,296a1,1,0,0,1,.53-.18,2,2,0,0,1,.68.06,1.25,1.25,0,0,1,.55.34.84.84,0,0,1,.2.65,5.67,5.67,0,0,0,0,1,6.56,6.56,0,0,0,.13,1,2,2,0,0,0,.28.72.51.51,0,0,0,.42.29,2.08,2.08,0,0,0,.93-.33l.16-.1c0-.43,0-.87.08-1.31.07-.91.17-1.79.32-2.64a12.2,12.2,0,0,1,.59-2.28,5.09,5.09,0,0,1,.94-1.6,1.75,1.75,0,0,1,1.35-.61,3.21,3.21,0,0,1,1.62.33,1.61,1.61,0,0,1,.74.86,2.57,2.57,0,0,1,.08,1.22,6.75,6.75,0,0,1-.37,1.38,18,18,0,0,1-2.12,3.78.62.62,0,0,0-.15.22l.05.07a5.68,5.68,0,0,1,1.65-1.33,4.42,4.42,0,0,1,2.56-.42,2.31,2.31,0,0,1,1.64.82,4,4,0,0,1,.78,1.74A6.08,6.08,0,0,1,629.6,301.86Zm22.64-.86-.88.76a9.22,9.22,0,0,1-.86.67,5.64,5.64,0,0,1-.79.47,1.64,1.64,0,0,1-.65.18,1.83,1.83,0,0,1-1.13-.33,2.17,2.17,0,0,1-.67-.89,4.52,4.52,0,0,1-.31-1.29,12.69,12.69,0,0,1,0-1.53c-.17.27-.37.59-.58,1s-.42.76-.62,1.17-.4.81-.59,1.21l-.49,1.07c0,.4,0,.8.07,1.19s.07.81.12,1.22c0,.24-.14.41-.48.52a3.36,3.36,0,0,1-2.3-.15.75.75,0,0,1-.53-.69c0-.13,0-.39,0-.77s0-.56,0-.89a12,12,0,0,1-1.58,1,13.81,13.81,0,0,1-1.92.89,7.38,7.38,0,0,1-1.63.46,11.42,11.42,0,0,1-2.55.09,5.69,5.69,0,0,1-1.73-.42,2.73,2.73,0,0,1-1-.76,2.83,2.83,0,0,1-.53-.95,3.38,3.38,0,0,1-.18-1,7,7,0,0,1,0-.84,5.6,5.6,0,0,1,.26-.95,7.2,7.2,0,0,1,.55-1.23,11.65,11.65,0,0,1,.86-1.3,7.82,7.82,0,0,1,1.13-1.17,5.75,5.75,0,0,1,1.39-.85,4.11,4.11,0,0,1,1.64-.33,3.69,3.69,0,0,1,1.38.05,2.19,2.19,0,0,1,1,.52,1.61,1.61,0,0,1,.43,1.26,3.77,3.77,0,0,1-.33,1.59,4.45,4.45,0,0,1-.83,1.22,3.83,3.83,0,0,1-1.14.79,3.1,3.1,0,0,1-1.22.27,1.85,1.85,0,0,1-1-.25,1.76,1.76,0,0,1-.58-.57.84.84,0,0,1-.14-.57.27.27,0,0,1,.3-.27,2.07,2.07,0,0,0,1.33,0,2.8,2.8,0,0,0,1-.63,2,2,0,0,0,.56-.81c.1-.29.08-.49-.06-.62a.84.84,0,0,0-.68,0,3.53,3.53,0,0,0-1,.43,4.6,4.6,0,0,0-.92.8,2.63,2.63,0,0,0-.59,1,2.29,2.29,0,0,0,0,1.13,1.74,1.74,0,0,0,.5.87,2.2,2.2,0,0,0,1,.53,3.05,3.05,0,0,0,1.33.07c.44-.06.92-.14,1.43-.25a10.56,10.56,0,0,0,1.49-.41,6.34,6.34,0,0,0,1.36-.66,3.6,3.6,0,0,0,.86-.79c0-.48.07-1,.13-1.43s.16-1.18.26-1.71a9.11,9.11,0,0,1,.37-1.37c.06-.14.21-.23.47-.28a3,3,0,0,1,.81-.05,3.82,3.82,0,0,1,.75.15c.22.08.33.18.33.29,0,.33,0,.81-.08,1.45a12.09,12.09,0,0,1,1.25-1.4,4.11,4.11,0,0,1,1.35-.88,1,1,0,0,1,.53-.18,1.89,1.89,0,0,1,.67.06,1.23,1.23,0,0,1,.56.34.84.84,0,0,1,.2.65,4.86,4.86,0,0,0,0,1,6.56,6.56,0,0,0,.13,1,2,2,0,0,0,.28.72.51.51,0,0,0,.42.29,2.08,2.08,0,0,0,.93-.33,10.17,10.17,0,0,0,1.14-.75c.44-.32.9-.68,1.37-1.09l.8,1.19C653.61,299.69,652.91,300.39,652.24,301Zm12.27-20.21a4.15,4.15,0,0,1-8.29,0v-.4H645.33v.4a3,3,0,0,1-5.92,0v-.4h-9.88a15.16,15.16,0,0,1-27.73-.23H592v.39a3,3,0,1,1-5.92,0v-.39h-10.9v.39a4.15,4.15,0,0,1-8.29,0V267.3a4.15,4.15,0,1,1,8.29,0v.31h10.9v-.31a3,3,0,1,1,5.92,0v.31h9.91a15.17,15.17,0,0,1,27.67.24h9.8v-.32a3,3,0,0,1,5.92,0v.32h10.89v-.32a4.15,4.15,0,0,1,8.29,0Z" transform="translate(-553.72 -234.04)"/><path class="cls-1" d="M626.51,299a1.1,1.1,0,0,0-1,.12,3.74,3.74,0,0,0-1,1,7.83,7.83,0,0,0-.86,1.55,6.88,6.88,0,0,0-.47,1.73,5.43,5.43,0,0,0,.73.08,3.56,3.56,0,0,0,.78-.08,2.78,2.78,0,0,0,1.28-.74,4.83,4.83,0,0,0,1-1.31,2.79,2.79,0,0,0,.33-1.38A1,1,0,0,0,626.51,299Z" transform="translate(-553.72 -234.04)"/><path class="cls-1" d="M623.67,293.47a1.12,1.12,0,0,0-.07-.87c-.05-.05-.1,0-.15.07a3.12,3.12,0,0,0-.14.41q-.07.29-.15.66c0,.26-.09.52-.14.79-.11.64-.21,1.38-.32,2.21.25-.68.46-1.3.64-1.87S623.59,293.91,623.67,293.47Z" transform="translate(-553.72 -234.04)"/></svg>