<svg xmlns="http://www.w3.org/2000/svg" viewBox="0 0 490.4 70.5"><defs><style>.cls-1{fill:#333;}</style></defs><title>moustage</title><g id="Warstwa_2" data-name="Warstwa 2"><path class="cls-1" d="M751.56,263.5c2.1,10.06-13.32,45.94-41.9,20.12-19-17.15-36.61-7.24-44.74-.65-8.13-6.59-25.77-16.5-44.74.65-28.59,25.82-44-10.06-41.91-20.12,0,0-31.85,59.93,37.3,70,20.81,3,41.07-7.74,49.35-20.05,8.28,12.31,28.53,23.08,49.35,20.05C783.41,323.43,751.56,263.5,751.56,263.5Z" transform="translate(-419.5 -263.5)"/><path class="cls-1" d="M546.27,298.91a239.13,239.13,0,0,1-31.69,4.36c-10.56.83-21.12,1.22-31.69,1.24s-21.13-.33-31.69-1.12a237.59,237.59,0,0,1-31.7-4.27,237.63,237.63,0,0,1,31.68-4.38q15.85-1.23,31.69-1.22c10.57,0,21.13.34,31.7,1.13A241.1,241.1,0,0,1,546.27,298.91Z" transform="translate(-419.5 -263.5)"/><path class="cls-1" d="M909.9,298.91a239.21,239.21,0,0,1-31.68,4.36c-10.57.83-21.13,1.22-31.69,1.24s-21.13-.33-31.7-1.12a237.81,237.81,0,0,1-31.7-4.27,237.77,237.77,0,0,1,31.69-4.38q15.84-1.23,31.69-1.22c10.56,0,21.13.34,31.69,1.13A240.87,240.87,0,0,1,909.9,298.91Z" transform="translate(-419.5 -263.5)"/></g></svg>