<svg id="Warstwa_1" data-name="Warstwa 1" xmlns="http://www.w3.org/2000/svg" viewBox="0 0 110.38 330.51"><defs><style>.cls-1{fill:#333;}</style></defs><title>vintage</title><path class="cls-1" d="M181.89,274.43a17.5,17.5,0,0,0,5.56-2.44,4.72,4.72,0,0,0,2.22-4.17c0-3.59,0-7.18,0-10.78s-.07-7,0-10.48a5.07,5.07,0,0,0-2.84-4.79,25.06,25.06,0,0,0-6.74-2.58,1.77,1.77,0,0,1-1.38-1.34,46.63,46.63,0,0,0-88.48.22,1.45,1.45,0,0,1-1.15,1.09A24.53,24.53,0,0,0,81.85,242a5.08,5.08,0,0,0-2.53,4.61q0,10.44,0,20.88A5.25,5.25,0,0,0,81.63,272a19.35,19.35,0,0,0,5.65,2.47c.5.16.86.35.84,1a3.59,3.59,0,0,0,1.58,3.19.77.77,0,0,1,.42.78,67.16,67.16,0,0,0-.11,6.95q0,83.53,0,167.05c0,.32,0,.64,0,1s-.17.54-.55.63a2.59,2.59,0,0,0-2.3,2.89c0,1.49,0,3,0,4.48a1.48,1.48,0,0,1-.42,1.21,4.39,4.39,0,0,0-1.41,3.53c.14,1.64-.59,2.3-2,2.88-2.41,1-4,2.67-4,5.56q.09,10.24,0,20.5a5.08,5.08,0,0,0,2.61,4.64,16.89,16.89,0,0,0,5.7,2.34A3.9,3.9,0,0,1,90.81,506a45.2,45.2,0,0,0,18.5,23.19,45.79,45.79,0,0,0,26.47,7.39,44.73,44.73,0,0,0,18.07-4.15,46.23,46.23,0,0,0,24.9-27.71,1.71,1.71,0,0,1,1.35-1.25,24,24,0,0,0,6.83-2.62c1.45-.91,2.69-2,2.7-3.88,0-7.41,0-14.82,0-22.22a4.18,4.18,0,0,0-1.16-2.85,9.41,9.41,0,0,0-3.76-2.36,1.34,1.34,0,0,1-1-1.56,5.09,5.09,0,0,0-1.16-4.1A2.45,2.45,0,0,1,182,462a30.15,30.15,0,0,0-.11-4.75,2.38,2.38,0,0,0-2.2-2.26c-.55-.08-.7-.32-.68-.81,0-.29,0-.57,0-.86q0-82.71,0-165.43a81.67,81.67,0,0,0,0-8.28,1.15,1.15,0,0,1,.55-1.12,3,3,0,0,0,1.36-2.78C180.79,274.92,181.18,274.63,181.89,274.43Zm-21.08-52.24a44.87,44.87,0,0,1,10.95,14.38c.13.27.45.58.27.86s-.58,0-.88,0a1.58,1.58,0,0,1-1.61-1.06,46.07,46.07,0,0,0-15.6-18.85c-.11-.08-.3-.11-.29-.38A40.62,40.62,0,0,1,160.81,222.19Zm-33.29-10.83a2.48,2.48,0,0,1,2.57,2.67,2.56,2.56,0,0,1-2.61,2.56,2.61,2.61,0,0,1-2.53-2.66A2.48,2.48,0,0,1,127.52,211.36Zm-23.15,14A17.27,17.27,0,0,1,120,215.55c2.31.14,3.18,1.39,2.38,3.61a14.81,14.81,0,0,1-4.2,5.81,18.06,18.06,0,0,1-10.46,4.62C104.27,229.64,103.21,228.2,104.37,225.41ZM84.52,261.27q0-7.15,0-14.3c0-.68.42-.95.92-1.19a31.1,31.1,0,0,1,7.82-2.36,155.8,155.8,0,0,1,16.52-2.14,315,315,0,0,1,34.76-.87A180.81,180.81,0,0,1,165.69,242c-10.05-.72-20.12-.86-30.19-.63,15,.75,30,1.58,44.58,5.45-14.75-2.8-29.65-2.86-44.58-2.61,15.07.7,30.11,1.57,44.78,5.47-14.8-2.9-29.78-2.8-44.9-2.88a1.75,1.75,0,0,0,1.27.4c6,.08,12.06.47,18.07,1a144.2,144.2,0,0,1,24.51,3.93,4,4,0,0,1,1.27.46c-14.89-3-29.93-3-45-2.78,5,.28,10.06.51,15.08.86s10.12.86,15.15,1.61a94.69,94.69,0,0,1,14.89,3.11c-14.92-3-30-3-45.15-2.83,15.26.78,30.51,1.6,45.35,5.65-15-3-30.13-3.05-45.31-2.79,5.67.26,11.33.56,17,1a162,162,0,0,1,17,2.17c-2-.22-3.91-.46-5.86-.66-2.56-.25-5.12-.52-7.68-.68-8.95-.52-17.9-.77-26.86-.56-6.82.16-13.64.45-20.44,1.06a129.79,129.79,0,0,0-20.21,3.08c-1,.26-2.08.6-3.09,1C84.75,262,84.51,261.89,84.52,261.27Zm30.23,265.81a46.08,46.08,0,0,0,29.45,2.6c10.19-2.43,18.32-8,25-16C158.61,532,133.29,538.46,114.75,527.08ZM177,496.71a125.39,125.39,0,0,1-17,2.74c-7.3.78-14.61,1.33-21.94,1.56a22.11,22.11,0,0,0-2.82.31q15.89.36,31.74-.83c-4.52.62-9.05,1-13.6,1.27-9.07.61-18.16.67-27.24.51q-9.24-.16-18.44-1.06a125.42,125.42,0,0,1-17.68-2.72,27,27,0,0,1-4.7-1.57,1.64,1.64,0,0,1-1.07-1.69c0-4.42,0-8.84,0-13.25,0-1.2,0-1.18,1.19-.78a73.27,73.27,0,0,0,12,2.67c5.3.84,10.66,1.24,16,1.67,2.66.22,5.33.3,8,.42,6.73.3,13.47.3,20.21.16,6.28-.13,12.56-.41,18.82-1.06,1.16-.11,2.32-.16,3.48-.24-9.53,1.32-19.12,1.89-28.71,2.39,7.58.16,15.16.21,22.73-.21a142.33,142.33,0,0,0,22.45-2.61c-14.77,4.17-30,4.82-45.18,5.67,15.31.17,30.61.19,45.73-3-.25.1-.51.21-.77.29s-.6.2-.9.29a100,100,0,0,1-14.87,2.84c-4.91.63-9.84,1.11-14.77,1.47-3.9.28-7.8.45-11.7.63a12.53,12.53,0,0,0-2.72.36c15.26.07,30.51.12,45.56-3a36.27,36.27,0,0,1-5.89,1.66,165.86,165.86,0,0,1-17.9,2.56c-5.84.59-11.71.91-17.57,1.26-1.39.08-2.78,0-4.18.16a185.84,185.84,0,0,0,22.76-.12,131.9,131.9,0,0,0,22.62-2.62c-.29.11-.57.23-.87.32a100.84,100.84,0,0,1-16.07,3.08c-6,.77-12.06,1.22-18.11,1.66-2.94.21-5.89.29-8.84.43a6.86,6.86,0,0,0-1.5.13c15.32.23,30.63.26,46-3A24.64,24.64,0,0,1,177,496.71Zm2-24.2c.82.91,2,1.09,3,1.5.5.2,1,.43,1.48.66s.59.57,0,.87A21.11,21.11,0,0,1,179.8,477a90.76,90.76,0,0,1-13.87,2.46c-8.65,1-17.33,1.47-26,1.61-1.94,0-3.87.06-5.81.17-5.3-.15-10.61-.19-15.9-.48A176.74,176.74,0,0,1,93,477.89a35.91,35.91,0,0,1-7.4-2.17c-.33-.14-.84-.24-.82-.67s.5-.45.81-.58c.94-.39,1.9-.73,2.84-1.1a.91.91,0,0,1,.82.06,31.1,31.1,0,0,0,10.64,2.79c6.46.77,12.92,1.53,19.4,2.07a199.2,199.2,0,0,0,22.66.58A159.14,159.14,0,0,0,163,477c5.25-.87,10.43-2,15.21-4.46C178.49,472.43,178.77,472.24,179,472.51Zm-65.71-65.76c0-.85-.29-1-1-.63-2.21,1-4.37,2.05-6.51,3.17a1.71,1.71,0,0,0-1,1.72,84.13,84.13,0,0,1-.42,9.52,54,54,0,0,1-1.26,8.36,34.19,34.19,0,0,1-1-5.43c-.43-3.51-.66-7-.76-10.54,0-.78-.34-.68-.81-.36a64.26,64.26,0,0,0-6.83,5.34L92.4,419c-.3-.32-.19-.62-.2-.89,0-4.36,0-8.71,0-13.07a2.26,2.26,0,0,1,.89-1.87,71.06,71.06,0,0,1,8-6.21,1.51,1.51,0,0,0,.71-1.16c.3-2.33.46-4.68.92-7a5.28,5.28,0,0,1,.35-1.18,20.83,20.83,0,0,1,.91,4.6c.08.63.15,1.26.2,1.89s.26.7.74.43a80.79,80.79,0,0,1,7.68-3.83c.55-.24.58-.7.57-1.19,0-2.06-.12-4.13-.12-6.19,0-5.18,0-10.36,0-15.54,0-1.08-.07-1.13-1.07-.7a67.57,67.57,0,0,0-18.75,12.06c-.21.18-.36.45-.69.47-.26-.27-.15-.6-.15-.9,0-4.32,0-8.64,0-13a2.13,2.13,0,0,1,.76-1.74,66.49,66.49,0,0,1,9.05-7,1.45,1.45,0,0,0,.81-1.72,4.26,4.26,0,0,1-.06-.95q-.12-7.58-.25-15.15c0-1.78-.12-3.56-.14-5.33,0-.85-.3-.83-.9-.43a67.33,67.33,0,0,0-7.86,6c-.14.13-.27.27-.42.39s-.47.59-.77.48-.19-.62-.19-.94c0-4.3,0-8.59,0-12.88a2.21,2.21,0,0,1,.82-1.8,71.4,71.4,0,0,1,8.29-6.42,1.31,1.31,0,0,0,.67-1.25c-.16-7.24-.29-14.49-.44-21.73,0-.9-.19-1-.93-.49a66.63,66.63,0,0,0-7.5,5.87c-.23.21-.47.4-.7.6-.28-.31-.18-.61-.18-.88,0-4.2,0-8.39,0-12.59a1.42,1.42,0,0,1,1-1.55,48.36,48.36,0,0,1,11.5-2.58,224.88,224.88,0,0,1,27.94-1.61,1.21,1.21,0,0,1,.69.15l-4.23.94A91.62,91.62,0,0,0,108,290.55c-.91.46-1.79,1-2.69,1.43a1.36,1.36,0,0,0-.82,1.36q-.17,9.87-.39,19.73c0,.92-.09,1.84-.13,2.76,0,.56.15.78.72.45A72.65,72.65,0,0,1,113.4,312a1.09,1.09,0,0,0,.69-1.12c.11-2.76.24-5.52.36-8.28.09-1.9.17-3.81.26-5.94.38,2.32.26,4.44.43,6.54s.18,4.32.26,6.48c.06,1.44.1,1.45,1.49,1,1.92-.66,3.84-1.34,5.81-1.84a1.12,1.12,0,0,0,1-1.17,41.59,41.59,0,0,1,.81-5.73c.19,1.8.4,3.61.58,5.42.05.6.29.74.87.6,5.32-1.23,10.66-2.38,16-3.67a79.72,79.72,0,0,0,23.33-9.39,73,73,0,0,0,10.12-7.61c.23-.2.42-.58.78-.4s.24.56.24.87q0,6.48,0,13a1.51,1.51,0,0,1-.43,1.21,66.7,66.7,0,0,1-6.31,5.24c-.16-4.07.11-8-.52-11.85,0,2.32,0,4.63,0,6.94,0,1.5-.07,3-.09,4.48a1.77,1.77,0,0,1-.91,1.55,73.11,73.11,0,0,1-16.44,8.35c-7.14,2.6-14.56,4-21.94,5.67-.93.21-1.85.47-2.79.65-.72.14-1,.51-.94,1.25.09,3.52.18,7.05.19,10.58,0,3.68-.1,7.37-.14,11.05,0,1.19.05,1.23,1.17,1,6.14-1.47,12.37-2.58,18.45-4.32a77.19,77.19,0,0,0,21.89-9.88c.27-.19.55-.6.9-.39s.12.59.12.9c0,4.42,0,8.84-.18,13.25a1.54,1.54,0,0,1-.75,1.42c-1,.62-2,1.31-3,1.94-.85.53-1,.47-1-.51,0-2.44,0-4.88,0-7.32h-.34c-.08,1.9-.19,3.8-.23,5.7-.07,3.19-.06,3.18-3,4.64A97.91,97.91,0,0,1,136.39,360c-3.36.72-6.69,1.52-10,2.26a1.21,1.21,0,0,0-1.14,1.24c-.19,2.42-.48,4.84-.91,7.26-.16-1.4-.32-2.8-.47-4.2-.09-.91-.16-1.83-.22-2.75,0-.54-.25-.73-.8-.59-1.94.5-3.83,1.17-5.72,1.82-.6.2-.58.68-.57,1.17,0,2.54,0,5.08,0,7.63q0,7.09,0,14.2c0,.63,0,1.11.88.8,7.23-2.59,14.78-3.94,22.24-5.66a87.36,87.36,0,0,0,21.83-7.79c.95-.51,1-.45,1,.66-.07,4.45-.16,8.9-.21,13.35a1.26,1.26,0,0,1-.8,1.26c-1,.47-1.94.94-2.89,1.46-.67.35-.81.11-.82-.54-.05-2.7-.15-5.4-.19-8.1a35.2,35.2,0,0,0-.26-3.7c-.27.11-.16.34-.17.51-.08,3.5-.16,7-.23,10.49,0,2.16,0,2.15-2,3a118.34,118.34,0,0,1-20.77,5.94,135.42,135.42,0,0,0-16.67,4.4,1.49,1.49,0,0,0-1.16,1.65c0,4.83,0,9.66-.22,14.48-.09,2.51,0,5-.22,7.53,0,.57.1.8.68.59,8.31-3.1,17.07-4.45,25.64-6.59a86.56,86.56,0,0,0,13-4.24c.79-.34,1-.18.95.66-.23,4.53-.34,9.07-.39,13.62,0,.25,0,.57-.17.72a11.7,11.7,0,0,1-3.22,1.35c-.36.11-.31-.32-.33-.55-.13-2.34-.25-4.69-.38-7a37.09,37.09,0,0,0-.38-4.18c-.07.78-.18,1.56-.22,2.34-.16,3-.34,6-.4,8.95a1.46,1.46,0,0,1-1.22,1.59,182.53,182.53,0,0,1-18.3,4.56,120.69,120.69,0,0,0-14.77,4.11,1.56,1.56,0,0,0-1.19,1.67c-.07,2.59-.21,5.18-.46,7.77-.11-2.47-.2-4.94-.36-7.41-.07-1.2-.14-1.2-1.24-.74a67,67,0,0,0-19,11.8l-.44.37a.79.79,0,0,1-1,.19.88.88,0,0,1-.53-.92c0-4.16,0-8.32,0-12.49a1.78,1.78,0,0,1,.75-1.35A64.82,64.82,0,0,1,108.07,432c1.59-.8,3.21-1.55,4.84-2.25a1.21,1.21,0,0,0,.83-1.3C113.55,421.24,113.29,414,113.31,406.75ZM171.16,409a1.08,1.08,0,0,1,.43-1c1.4-1.09,2.74-2.25,4-3.46.17-.15.36-.45.63-.29s.12.41.12.62c0,2.29,0,4.57,0,6.86s0,4.31,0,6.47a1.5,1.5,0,0,1-.43,1.3q-1.92,1.63-3.82,3.29c-.43.37-.67.31-.7-.28,0-.95-.1-1.9-.12-2.85C171.26,416.09,171.4,412.54,171.16,409Zm-.45-33.63c0-1.65-.09-3.3-.14-4.95a1.16,1.16,0,0,1,.33-1l5.49-4.6V369c0,3.27,0,6.54,0,9.81a2.2,2.2,0,0,1-.85,1.9c-1.36,1.13-2.7,2.3-4.05,3.45-.17.15-.34.39-.56.31s-.18-.44-.18-.68C170.75,381,170.75,378.15,170.71,375.36ZM170,331.84a1.7,1.7,0,0,1,.78-1.6,57.52,57.52,0,0,0,4.81-4c.19-.18.39-.53.7-.35s.11.47.11.71c0,4.44,0,8.88,0,13.32a1.47,1.47,0,0,1-.42,1.21c-1.73,1.54-3.46,3.07-5.31,4.47a1.58,1.58,0,0,1-.31.13c-.23-.17-.16-.38-.16-.56C170.17,340.71,170.17,336.27,170,331.84Zm2.25,114.84,4.17-3.57V446c0,3.34,0,6.67,0,10a1.38,1.38,0,0,1-1.06,1.55l-2.73.84c-.43.14-.73.11-.73-.48,0-3.47,0-6.93-.05-10.39A1,1,0,0,1,172.23,446.68Zm-12-172.85a255.76,255.76,0,0,0-34.34-1.28,163.79,163.79,0,0,0-25.69,2.23A34.62,34.62,0,0,0,92.39,277c.12-.44.48-.51.75-.64A40.9,40.9,0,0,1,104.41,273a169,169,0,0,1,20.81-2.34c5.21-.3,10.42-.28,15.62-.1,9,.31,18.07,1,26.91,3.19a34.48,34.48,0,0,1,7.82,2.7c.47.25.92.53,1.38.8C171.56,275.13,165.91,274.48,160.26,273.83ZM168,376.67h-.19c0,3.11,0,6.22,0,9.33a1.29,1.29,0,0,1-.65,1.27c-.68.4-1.34.84-2,1.29s-.74.26-.74-.42c-.05-3.24-.12-6.47-.19-9.71,0-1.14-.06-2.29-.15-3.42a1.39,1.39,0,0,1,.77-1.56c.76-.39,1.45-.91,2.18-1.36.26-.15.5-.52.83-.32s.14.53.14.8C168,373.94,168,375.3,168,376.67Zm-.59,36.88v1.72h-.19c0,3.42,0,6.85,0,10.28a2.29,2.29,0,0,1-1.67,1.92c-.57.1-.33-.36-.34-.57q-.12-3.9-.19-7.8c0-1.84,0-3.69-.05-5.53,0-.75,1.45-2.3,2.17-2.3.41,0,.26.35.27.57C167.44,412.41,167.42,413,167.42,413.55Zm-1.66,41.57v-2.95a1.37,1.37,0,0,1,.13-.83c.19-.26.44-.55.77-.45s.18.44.18.67c0,2.41-.1,4.82-.16,7.23,0,.28,0,.66-.32.71s-.46-.39-.47-.67c0-1.24,0-2.48,0-3.71Zm-4.84.7h-.15c0,1.26,0,2.52,0,3.78,0,.37,0,.72-.53.73s-.52-.36-.53-.72c0-1.42,0-2.84,0-4.26a1,1,0,0,1,.11-.55,1,1,0,0,1,.95-.49c.34.08.18.49.2.75S160.92,455.57,160.92,455.82Zm-1.57-24.88c-.5.1-.42-.24-.44-.51-.06-1.2-.12-2.4-.16-3.61-.08-3.23-.13-6.46-.24-9.69a1.43,1.43,0,0,1,.94-1.54c2.27-1.08,2.26-1.11,2.24,1.39v.47c-.22,3.64-.15,7.29-.21,10.94A2.4,2.4,0,0,1,159.35,430.94ZM155,458.49c0,.54-.13,1.11-.15,1.68s-.31.76-.85.76-.64-.38-.66-.83c0-.67,0-1.33-.11-2a.61.61,0,0,1,.41-.75c.38-.13.82-.54,1.14-.31S154.91,458,155,458.49Zm-5.73,1.11c0,.32,0,.64,0,1,0,.52-.23.74-.75.73-2.63,0-5.25.34-8.1.18l8.22-2.34C149.11,459,149.34,459.1,149.31,459.6ZM92.8,462.72c5.57,1.77,11.36,2.38,17.14,3,3.12.32,6.26.46,9.4.64,6.75.41,13.52.49,20.28.36a226,226,0,0,0,23.27-1.45,71.43,71.43,0,0,0,12.89-2.49c.56-.18.79-.08.81.57,0,1.76.09,1.78-1.6,2.36A51.69,51.69,0,0,1,163.43,468c-6.12.64-12.28.92-18.43,1.09-4.51.13-9,.36-12.27.27a237.65,237.65,0,0,1-25.11-1.3,69.47,69.47,0,0,1-11.91-2c-.8-.23-1.55-.57-2.34-.82A1.79,1.79,0,0,1,92,463.41C92,462.77,92.1,462.5,92.8,462.72Zm6.87,6.46q7.45,1,14.91,2c3.53.45,7.08.67,10.63.87,5.43.31,10.87.36,16.29.17,9.4-.33,18.77-1,27.9-3.55a38.94,38.94,0,0,0,6.5-2.46c.36-.17.72-.74,1.17-.29s1.43.8,1.4,1.8c0,.54,0,1.08,0,1.62,0,2.33,0,2.36-2.22,3a73.35,73.35,0,0,1-12.92,2.31,255.33,255.33,0,0,1-26.52,1.4c-6.55,0-13.08-.06-19.62-.4-5.55-.29-11.08-.77-16.57-1.59a42.54,42.54,0,0,1-8.7-2.06c-1.68-.62-1.69-.61-1.69-2.37,0-.69,0-1.4,0-2.09s.53-1.07,1.21-.71A24.51,24.51,0,0,0,99.67,469.18Zm77.76-199a46.55,46.55,0,0,0-11.1-2.59A194.57,194.57,0,0,0,146.88,266c-4.89-.15-9.77-.38-14.66-.28-5.24.1-10.48.15-15.71.53-7.06.5-14.12,1-21.05,2.63A31.61,31.61,0,0,0,90,270.65a20,20,0,0,1,5.58-2.59,76.39,76.39,0,0,1,14-2.91,193.48,193.48,0,0,1,29.37-1.3,181.63,181.63,0,0,1,21.35,1.63A86.63,86.63,0,0,1,173,268a16.67,16.67,0,0,1,6,2.85C178.47,270.62,178,270.36,177.43,270.15Zm-10.38-7.95c-7.29-.77-14.62-1.11-22-1.36-6.16-.22-12.33-.2-18.49-.08-5.52.11-11,.4-16.55.72a138.63,138.63,0,0,0-20.41,2.42c-.83.18-1.65.4-2.49.53a39.79,39.79,0,0,1,6.93-1.92,154.94,154.94,0,0,1,17.45-2.34q13.63-1.14,27.31-.9c7.37.11,14.72.48,22.06,1.25a131.21,131.21,0,0,1,16.36,2.55,29.6,29.6,0,0,1,6.62,2.27A78.63,78.63,0,0,0,167.05,262.2Z" transform="translate(-79.3 -206.05)"/><path class="cls-1" d="M103.2,352.5q.19-9.66.36-19.33a1.6,1.6,0,0,1,.9-1.52,79.91,79.91,0,0,1,8.18-4.08c.67-.28.92-.18.9.58q-.2,8.63-.35,17.24c0,1.68,0,3.36,0,5a1.1,1.1,0,0,1-.75,1.17,74.25,74.25,0,0,0-8.48,4.32c-.59.36-.79.17-.77-.47,0-1,0-2,0-2.95Z" transform="translate(-79.3 -206.05)"/><path class="cls-1" d="M122.7,330.05c-.22,5.61,0,11.22,0,16.84a1.19,1.19,0,0,1-1,1.39c-1.41.39-2.78.89-4.16,1.35-1.08.36-1.15.33-1.17-.77q-.12-8.24-.23-16.47c0-1.74-.09-3.49-.17-5.23a1,1,0,0,1,.82-1.19c1.69-.53,3.38-1.09,5.06-1.66.69-.23.9,0,.88.69C122.67,326.68,122.7,328.36,122.7,330.05Z" transform="translate(-79.3 -206.05)"/></svg>