<svg id="Warstwa_1" data-name="Warstwa 1" xmlns="http://www.w3.org/2000/svg" viewBox="0 0 523.5 338"><defs><style>.cls-1{fill:#fff;}</style></defs><title>zakładka</title><path class="cls-1" d="M1016.09,297.08H962.94a5.64,5.64,0,0,1-5.09-8.09l17.23-35.81a5.65,5.65,0,0,0-5.09-8.1H550a5.65,5.65,0,0,0-5.09,8.1L562.12,289a5.64,5.64,0,0,1-5.09,8.09H503.88a5.64,5.64,0,0,0-5.64,5.65V525.44a5.64,5.64,0,0,0,5.64,5.64H557a5.65,5.65,0,0,1,5.09,8.1L544.89,575a5.64,5.64,0,0,0,5.09,8.09H970a5.64,5.64,0,0,0,5.09-8.09l-17.23-35.81a5.65,5.65,0,0,1,5.09-8.1h53.15a5.65,5.65,0,0,0,5.65-5.64V302.73A5.65,5.65,0,0,0,1016.09,297.08ZM966,442.58a17.5,17.5,0,0,1-35,0v-1.66H885v1.66a12.5,12.5,0,0,1-25,0v-1.66H818.31a64,64,0,0,1-117.1-1H660v1.66a12.5,12.5,0,0,1-25,0v-1.66H589v1.66a17.5,17.5,0,0,1-35,0v-56a17.5,17.5,0,1,1,35,0v1.34h46v-1.34a12.5,12.5,0,1,1,25,0v1.34h41.82a64,64,0,0,1,116.8,1H860v-1.34a12.5,12.5,0,1,1,25,0v1.34h46v-1.34a17.5,17.5,0,1,1,35,0Z" transform="translate(-498.24 -245.08)"/></svg>